<?xml version="1.0" encoding="UTF-8" standalone="no"?>
<svg
   xmlns:dc="http://purl.org/dc/elements/1.1/"
   xmlns:cc="http://creativecommons.org/ns#"
   xmlns:rdf="http://www.w3.org/1999/02/22-rdf-syntax-ns#"
   xmlns:svg="http://www.w3.org/2000/svg"
   xmlns="http://www.w3.org/2000/svg"
   xmlns:sodipodi="http://sodipodi.sourceforge.net/DTD/sodipodi-0.dtd"
   xmlns:inkscape="http://www.inkscape.org/namespaces/inkscape"
   width="35.02005mm"
   height="9.9059687mm"
   viewBox="0 0 35.020048 9.9059683"
   version="1.1"
   id="svg8"
   inkscape:version="1.0.1 (3bc2e813f5, 2020-09-07)"
   sodipodi:docname="title.svg">
  <defs
     id="defs2" />
  <sodipodi:namedview
     id="base"
     pagecolor="#ffffff"
     bordercolor="#666666"
     borderopacity="1.0"
     inkscape:pageopacity="0.0"
     inkscape:pageshadow="2"
     inkscape:zoom="0.35"
     inkscape:cx="87.491454"
     inkscape:cy="227.49706"
     inkscape:document-units="mm"
     inkscape:current-layer="layer1"
     inkscape:document-rotation="0"
     showgrid="false"
     fit-margin-top="0"
     fit-margin-left="0"
     fit-margin-right="0"
     fit-margin-bottom="0"
     scale-x="1"
     inkscape:window-width="1268"
     inkscape:window-height="967"
     inkscape:window-x="78"
     inkscape:window-y="4"
     inkscape:window-maximized="0" />
  <metadata
     id="metadata5">
    <rdf:RDF>
      <cc:Work
         rdf:about="">
        <dc:format>image/svg+xml</dc:format>
        <dc:type
           rdf:resource="http://purl.org/dc/dcmitype/StillImage" />
        <dc:title />
      </cc:Work>
    </rdf:RDF>
  </metadata>
  <g
     inkscape:label="Plast 1"
     inkscape:groupmode="layer"
     id="layer1"
     transform="translate(-82.684553,-87.974736)">
    <g
       aria-label="Inztagram"
       id="text12"
       style="font-style:normal;font-variant:normal;font-weight:normal;font-stretch:normal;font-size:10.5833px;line-height:1.25;font-family:Cookie;-inkscape-font-specification:Cookie;fill:#000000;fill-opacity:1;stroke:none;stroke-width:0.264583">
      <path
         d="m 86.325208,89.181233 0.04233,1.968493 q 0,3.555989 -2.434159,3.555989 -0.476248,0 -0.86783,-0.222249 -0.380999,-0.22225 -0.380999,-0.687915 0,-0.285749 0.148166,-0.465665 0.148166,-0.190499 0.391582,-0.190499 0.253999,0 0.253999,0.116416 0,0.05292 -0.0635,0.211666 -0.0635,0.148166 -0.0635,0.306916 0,0.148166 0.179916,0.328082 0.179916,0.169333 0.539748,0.169333 0.359832,0 0.624415,-0.148166 0.264582,-0.148167 0.423332,-0.433916 0.158749,-0.296332 0.253999,-0.603248 0.105833,-0.306915 0.148166,-0.772581 0.0635,-0.687914 0.0635,-1.555745 0,-0.878414 0.02117,-1.449912 -1.354663,0.232833 -1.354663,1.164163 0,0.264583 -0.116416,0.412749 -0.105833,0.148166 -0.275166,0.148166 -0.317499,0 -0.317499,-0.359832 0,-0.645581 0.560915,-1.079497 0.571498,-0.433915 1.545162,-0.645581 0.07408,-0.433915 0.359832,-0.698498 0.285749,-0.275166 0.518582,-0.275166 0.232832,0 0.370415,0.137583 0.148166,0.127 0.148166,0.349249 0,0.518582 -0.719664,0.719665 z m 0.285749,-0.846664 q -0.232833,0 -0.275166,0.476248 0.380999,-0.116416 0.380999,-0.306916 0,-0.169332 -0.105833,-0.169332 z"
         style="font-style:normal;font-variant:normal;font-weight:normal;font-stretch:normal;font-family:Cookie;-inkscape-font-specification:Cookie;stroke-width:0.264583"
         id="path17" />
      <path
         d="m 87.764526,93.922551 0.01058,0.328082 q 0,0.296333 -0.169333,0.296333 -0.253999,0 -0.486832,-0.0635 -0.232832,-0.07408 -0.232832,-0.1905 0,-0.126999 0.05292,-0.83608 0.0635,-0.719665 0.0635,-1.079497 v -0.624415 q 0,-0.507998 0.105833,-0.613831 0.105833,-0.105833 0.370416,-0.306916 0.275165,-0.201082 0.391582,-0.201082 0.126999,0 0.158749,0.04233 0.03175,0.04233 0.03175,0.158749 0,0.560915 -0.211666,1.05833 -0.05292,0.603248 -0.05292,0.836081 0.04233,-0.0635 0.444498,-0.719664 0.402166,-0.656165 0.677331,-0.963081 0.285749,-0.306915 0.507999,-0.306915 0.222249,0 0.391582,0.148166 0.179916,0.148166 0.179916,0.370415 0,0.465666 -0.105833,1.375829 -0.09525,0.899581 -0.09525,1.142997 0,0.232832 0.0635,0.232832 0.179916,-0.01058 0.497415,-0.444498 0.317499,-0.444499 0.624415,-1.132413 0.317499,-0.687915 0.380999,-0.687915 0.07408,0 0.07408,0.08467 0,0.296332 -0.306916,0.941913 -0.836081,1.777995 -1.407579,1.777995 -0.412749,0 -0.624415,-0.169333 -0.07408,-0.07408 -0.07408,-0.380999 0,-0.317499 0.05292,-1.015997 0.0635,-0.709081 0.0635,-1.05833 0,-0.349249 -0.127,-0.349249 -0.116416,0 -0.634998,0.730248 -0.518582,0.719664 -0.550332,0.920747 -0.0635,0.370416 -0.0635,0.698498 z"
         style="font-style:normal;font-variant:normal;font-weight:normal;font-stretch:normal;font-family:Cookie;-inkscape-font-specification:Cookie;stroke-width:0.264583"
         id="path19" />
      <path
         d="m 92.653993,92.12339 q -1.280579,0 -1.619245,-0.402165 -0.169332,-0.201083 -0.169332,-0.455082 0,-0.254 0.148166,-0.380999 0.158749,-0.137583 0.328082,-0.137583 0.179916,0 0.296332,0.148166 0.116417,0.137583 0.116417,0.264583 0,0.190499 0.423332,0.275165 0.423332,0.07408 0.825497,0.07408 0.412749,-0.582082 0.582082,-0.656165 0.0635,-0.02117 0.137582,-0.02117 0.169333,0 0.169333,0.338666 0,0.338666 -0.148166,0.518582 -0.148166,0.179916 -0.518582,0.338665 -0.624414,0.571498 -1.227662,1.322913 0.275165,0.0635 0.83608,0.253999 0.560915,0.179916 0.645582,0.179916 0.433915,0 1.068913,-1.407579 0.285749,-0.634998 0.349249,-0.634998 0.07408,0 0.07408,0.15875 0,0.158749 -0.306916,0.86783 -0.814914,1.830911 -1.545162,1.830911 -0.07408,0 -0.677331,-0.264582 -0.603248,-0.264583 -0.910164,-0.264583 -0.264582,0.391582 -0.507998,0.391582 -0.158749,0 -0.158749,-0.285749 0,-0.296332 0.232832,-0.582081 0.243416,-0.296333 0.518582,-0.296333 0.740831,-0.825497 1.037163,-1.174746 z"
         style="font-style:normal;font-variant:normal;font-weight:normal;font-stretch:normal;font-family:Cookie;-inkscape-font-specification:Cookie;stroke-width:0.264583"
         id="path21" />
      <path
         d="m 96.834378,92.768971 q -0.836081,1.777995 -1.418163,1.777995 -0.571498,0 -0.677331,-0.137583 -0.09525,-0.137583 -0.09525,-0.910164 0,-0.772581 0.148166,-2.233076 -0.529165,-0.105833 -0.560915,-0.433916 0,-0.169332 0.222249,-0.169332 0.222249,0 0.391582,0.08467 0.09525,-0.761998 0.222249,-1.545162 0.03175,-0.201082 0.201083,-0.380999 0.169333,-0.179916 0.328082,-0.179916 0.137583,0 0.137583,0.433916 0,0.201082 -0.148166,1.852077 0.285749,-0.05292 0.624415,-0.211666 0.349249,-0.158749 0.412749,-0.158749 0.190499,0 0.190499,0.116416 0.01058,0.105833 -0.391582,0.296332 -0.402166,0.179916 -0.867831,0.275166 -0.126999,1.545162 -0.126999,2.338909 0,0.423332 0.126999,0.423332 0.1905,-0.01058 0.507999,-0.444498 0.317499,-0.433916 0.624414,-1.12183 0.317499,-0.698498 0.380999,-0.698498 0.07408,0 0.07408,0.08467 0,0.296332 -0.306915,0.941913 z"
         style="font-style:normal;font-variant:normal;font-weight:normal;font-stretch:normal;font-family:Cookie;-inkscape-font-specification:Cookie;stroke-width:0.264583"
         id="path23" />
      <path
         d="m 99.564851,94.546966 q -0.412748,0 -0.624414,-0.169333 -0.07408,-0.07408 -0.07408,-0.370416 0,-0.306915 0.02117,-0.814914 -0.275165,0.687915 -0.550331,1.02658 -0.264583,0.328083 -0.687915,0.328083 -0.423332,0 -0.740831,-0.391583 -0.317499,-0.402165 -0.317499,-1.248829 0,-0.857247 0.476249,-1.513412 0.486832,-0.656164 1.269996,-0.656164 0.338665,0 0.761997,0.444498 0.08467,-0.116416 0.296333,-0.275166 0.222249,-0.169332 0.370415,-0.169332 0.15875,0 0.15875,0.402165 0,0.105833 -0.0635,0.412749 -0.05292,0.306915 -0.127,0.444498 -0.09525,0.243416 -0.09525,1.725078 0,0.285749 0.0635,0.285749 0.179916,-0.01058 0.497416,-0.444498 0.3175,-0.444499 0.62441,-1.132413 0.3175,-0.687915 0.381,-0.687915 0.0741,0 0.0741,0.08467 0,0.296332 -0.30692,0.941913 -0.83608,1.777995 -1.407579,1.777995 z M 98.273689,91.16031 q -0.296332,0 -0.634998,0.444498 -0.328082,0.433916 -0.328082,1.02658 0,0.592665 0.169332,0.973664 0.179917,0.380999 0.465666,0.380999 0.349249,0 1.02658,-1.746245 0.01058,-0.08467 0.02117,-0.285749 0.02117,-0.211666 0.03175,-0.317499 -0.09525,-0.169333 -0.338665,-0.317499 -0.232833,-0.158749 -0.412749,-0.158749 z"
         style="font-style:normal;font-variant:normal;font-weight:normal;font-stretch:normal;font-family:Cookie;-inkscape-font-specification:Cookie;stroke-width:0.264583"
         id="path25" />
      <path
         d="m 103.06792,92.874804 q -0.32808,0.867831 -0.61383,1.269996 -0.27517,0.402166 -0.73025,0.402166 -0.45508,0 -0.77258,-0.391583 -0.30692,-0.391582 -0.30692,-1.248829 0,-0.857247 0.47625,-1.513412 0.48683,-0.656164 1.27,-0.656164 0.15875,0 0.381,0.137583 0.22224,0.126999 0.39158,0.317499 0.0318,-0.105833 0.30691,-0.328083 0.27517,-0.232832 0.42334,-0.232832 0.15874,0 0.15874,0.455082 0,0.455081 -0.19049,0.80433 -0.10584,0.709081 -0.11642,1.31233 1.03716,-1.31233 1.10066,-1.386413 0.0741,-0.07408 0.127,-0.07408 0.10583,0 0.10583,0.105833 0,0.0635 -0.0423,0.137583 -0.33866,0.497415 -1.33349,1.746244 -0.0635,1.259413 -0.0847,1.714495 -0.0529,1.344079 -0.381,1.883827 -0.3175,0.550332 -1.143,0.550332 -0.35983,0 -0.67733,-0.222249 -0.30691,-0.211666 -0.30691,-0.751415 0,-0.529165 0.40216,-1.090079 0.41275,-0.560915 1.49225,-1.725078 z m -0.74083,-1.756828 q -0.29634,0 -0.635,0.465666 -0.32808,0.455082 -0.32808,1.05833 0,0.592664 0.16933,0.973663 0.17992,0.370416 0.4445,0.370416 0.26458,0 0.508,-0.433916 0.24341,-0.433915 0.62441,-1.492245 0.0212,-0.359832 0.0212,-0.455082 -0.0847,-0.158749 -0.34925,-0.317499 -0.26458,-0.169333 -0.45508,-0.169333 z m 0.64558,3.471323 q -1.2065,1.301746 -1.2065,2.08491 0,0.359832 0.127,0.592665 0.127,0.232832 0.34925,0.232832 0.33867,0 0.47625,-0.370415 0.13758,-0.370416 0.20108,-1.502829 z"
         style="font-style:normal;font-variant:normal;font-weight:normal;font-stretch:normal;font-family:Cookie;-inkscape-font-specification:Cookie;stroke-width:0.264583"
         id="path27" />
      <path
         d="m 105.50207,91.731808 0.58208,-0.0635 q 0.0847,0 0.14817,0.09525 0.0635,0.09525 0.0635,0.201082 0,0.105833 -0.0741,0.719665 -0.0635,0.613831 -0.0635,0.973663 0,0.349249 0.0635,0.349249 0.17991,-0.01058 0.49741,-0.444498 0.3175,-0.444499 0.62442,-1.132413 0.3175,-0.687915 0.381,-0.687915 0.0741,0 0.0741,0.08467 0,0.296332 -0.30692,0.941913 -0.83608,1.777995 -1.40758,1.777995 -0.41274,0 -0.62441,-0.169333 -0.0741,-0.07408 -0.0741,-0.920747 0,-0.846664 0.17991,-1.449912 -0.61383,0 -0.85724,-0.391582 -0.127,-0.201083 -0.127,-0.455082 0,-0.254 0.10583,-0.444499 0.10583,-0.190499 0.29633,-0.190499 0.20108,0 0.35983,0.211666 0.16934,0.201082 0.16934,0.455082 0,0.253999 -0.14817,0.507998 0.0423,0.03175 0.13758,0.03175 z"
         style="font-style:normal;font-variant:normal;font-weight:normal;font-stretch:normal;font-family:Cookie;-inkscape-font-specification:Cookie;stroke-width:0.264583"
         id="path29" />
      <path
         d="m 110.25397,94.546966 q -0.41275,0 -0.62442,-0.169333 -0.0741,-0.07408 -0.0741,-0.370416 0,-0.306915 0.0212,-0.814914 -0.27517,0.687915 -0.55034,1.02658 -0.26458,0.328083 -0.68791,0.328083 -0.42333,0 -0.74083,-0.391583 -0.3175,-0.402165 -0.3175,-1.248829 0,-0.857247 0.47625,-1.513412 0.48683,-0.656164 1.26999,-0.656164 0.33867,0 0.762,0.444498 0.0847,-0.116416 0.29633,-0.275166 0.22225,-0.169332 0.37042,-0.169332 0.15875,0 0.15875,0.402165 0,0.105833 -0.0635,0.412749 -0.0529,0.306915 -0.127,0.444498 -0.0952,0.243416 -0.0952,1.725078 0,0.285749 0.0635,0.285749 0.17992,-0.01058 0.49741,-0.444498 0.3175,-0.444499 0.62442,-1.132413 0.3175,-0.687915 0.381,-0.687915 0.0741,0 0.0741,0.08467 0,0.296332 -0.30691,0.941913 -0.83608,1.777995 -1.40758,1.777995 z M 108.9628,91.16031 q -0.29633,0 -0.63499,0.444498 -0.32809,0.433916 -0.32809,1.02658 0,0.592665 0.16934,0.973664 0.17991,0.380999 0.46566,0.380999 0.34925,0 1.02658,-1.746245 0.0106,-0.08467 0.0212,-0.285749 0.0212,-0.211666 0.0318,-0.317499 -0.0952,-0.169333 -0.33867,-0.317499 -0.23283,-0.158749 -0.41275,-0.158749 z"
         style="font-style:normal;font-variant:normal;font-weight:normal;font-stretch:normal;font-family:Cookie;-inkscape-font-specification:Cookie;stroke-width:0.264583"
         id="path31" />
      <path
         d="m 112.21187,93.922551 0.0106,0.328082 q 0,0.296333 -0.16933,0.296333 -0.254,0 -0.48683,-0.0635 -0.23283,-0.07408 -0.23283,-0.1905 0,-0.126999 0.0529,-0.83608 0.0635,-0.719665 0.0635,-1.079497 v -0.624415 q 0,-0.507998 0.10584,-0.613831 0.10583,-0.105833 0.37041,-0.306916 0.27517,-0.201082 0.39158,-0.201082 0.127,0 0.15875,0.04233 0.0318,0.04233 0.0318,0.158749 0,0.560915 -0.21166,1.05833 -0.0529,0.603248 -0.0529,0.836081 0.56091,-1.047747 0.78316,-1.375829 0.39159,-0.613831 0.70909,-0.613831 0.20108,0 0.37041,0.158749 0.17992,0.15875 0.17992,0.391582 0,0.232833 -0.0106,0.444499 0,0.201083 -0.0106,0.317499 -0.0106,0.116416 -0.0106,0.148166 0.0423,-0.08467 0.35983,-0.476248 0.3175,-0.391583 0.42333,-0.507999 0.11642,-0.116416 0.24342,-0.232832 0.24341,-0.243416 0.43391,-0.243416 0.20108,0 0.37042,0.148166 0.17991,0.148166 0.17991,0.370415 0,0.465666 -0.10583,1.375829 -0.0953,0.899581 -0.0953,1.142997 0,0.232832 0.0635,0.232832 0.17992,-0.01058 0.49742,-0.444498 0.31749,-0.444499 0.62441,-1.132413 0.3175,-0.687915 0.381,-0.687915 0.0741,0 0.0741,0.08467 0,0.296332 -0.30691,0.941913 -0.83608,1.777995 -1.40758,1.777995 -0.35983,0 -0.5715,-0.169333 -0.0741,-0.07408 -0.0741,-0.380999 0,-0.317499 0.0529,-1.015997 0.0635,-0.709081 0.0635,-1.05833 0,-0.349249 -0.11641,-0.349249 -0.13759,0 -0.60325,0.465666 -0.45508,0.465665 -0.48683,0.656164 -0.0635,0.359832 -0.0635,1.555745 0,0.296333 -0.15875,0.296333 -0.24342,0 -0.46567,-0.0635 -0.21166,-0.07408 -0.21166,-0.1905 0,-0.126999 0.0635,-1.047746 0.0635,-0.920747 0.0635,-1.291163 0,-0.380999 -0.127,-0.380999 -0.11642,0 -0.58209,0.730248 -0.46566,0.719664 -0.51858,1.005414 -0.0423,0.285749 -0.0423,0.613831 z"
         style="font-style:normal;font-variant:normal;font-weight:normal;font-stretch:normal;font-family:Cookie;-inkscape-font-specification:Cookie;stroke-width:0.264583"
         id="path33" />
    </g>
  </g>
</svg>
